<svg width="23" height="22" viewBox="0 0 23 22" fill="none" xmlns="http://www.w3.org/2000/svg">
<g id="_&#235;&#160;&#136;&#236;&#157;&#180;&#236;&#150;&#180;_1" clip-path="url(#clip0_1_386)">
<path id="Vector" d="M2.87503 10.4211C2.07003 10.4211 1.39153 10.1432 0.828025 9.57582C0.276025 9.02003 -0.0114746 8.32529 -0.0114746 7.51476C-0.0114746 6.70424 0.264525 6.02108 0.828025 5.45371C1.38003 4.89792 2.07003 4.60845 2.87503 4.60845C3.68003 4.60845 4.35853 4.88634 4.92203 5.45371C5.47403 6.0095 5.76153 6.70424 5.76153 7.51476C5.76153 8.32529 5.48553 9.00845 4.92203 9.57582C4.37003 10.1316 3.68003 10.4211 2.87503 10.4211ZM8.05003 5.7895C7.24503 5.7895 6.56652 5.5116 6.00303 4.94424C5.43953 4.37687 5.16353 3.69371 5.16353 2.88318C5.16353 2.07266 5.43953 1.3895 6.00303 0.822131C6.56652 0.254762 7.24503 -0.0231323 8.05003 -0.0231323C8.85503 -0.0231323 9.53352 0.254762 10.097 0.822131C10.6605 1.3895 10.9365 2.07266 10.9365 2.88318C10.9365 3.69371 10.6605 4.37687 10.097 4.94424C9.53352 5.5116 8.85503 5.7895 8.05003 5.7895ZM14.95 5.7895C14.145 5.7895 13.4665 5.5116 12.903 4.94424C12.351 4.38845 12.0635 3.69371 12.0635 2.88318C12.0635 2.07266 12.3395 1.3895 12.903 0.822131C13.455 0.266341 14.145 -0.0231323 14.95 -0.0231323C15.755 -0.0231323 16.4335 0.254762 16.997 0.822131C17.5605 1.3895 17.8365 2.07266 17.8365 2.88318C17.8365 3.69371 17.5605 4.37687 16.997 4.94424C16.4335 5.5116 15.755 5.7895 14.95 5.7895ZM20.125 10.4211C19.32 10.4211 18.6415 10.1432 18.078 9.57582C17.526 9.02003 17.2385 8.32529 17.2385 7.51476C17.2385 6.70424 17.5145 6.02108 18.078 5.45371C18.6415 4.88634 19.32 4.60845 20.125 4.60845C20.93 4.60845 21.6085 4.88634 22.172 5.45371C22.7355 6.02108 23.0115 6.70424 23.0115 7.51476C23.0115 8.32529 22.7355 9.00845 22.172 9.57582C21.62 10.1316 20.93 10.4211 20.125 10.4211ZM5.34753 22C4.48503 22 3.76053 21.6642 3.17403 21.0042C2.58753 20.3442 2.30003 19.5569 2.30003 18.6421C2.30003 17.6348 2.64503 16.7548 3.32353 16.0021C4.00203 15.2495 4.68053 14.5084 5.34753 13.7674C5.89953 13.1653 6.38253 12.5169 6.78503 11.8106C7.18753 11.1042 7.67053 10.4442 8.22253 9.83055C8.64803 9.33266 9.13103 8.91582 9.69453 8.58003C10.258 8.24424 10.856 8.08213 11.5115 8.08213C12.167 8.08213 12.765 8.23266 13.3285 8.54529C13.892 8.85792 14.375 9.26318 14.8005 9.76108C15.341 10.3748 15.8125 11.0463 16.2265 11.7642C16.6405 12.4821 17.1235 13.1421 17.6755 13.7674C18.3425 14.4969 19.021 15.2495 19.6995 16.0021C20.378 16.7548 20.723 17.6348 20.723 18.6421C20.723 19.5453 20.4355 20.3327 19.849 21.0042C19.2625 21.6758 18.538 22 17.6755 22C16.6405 22 15.617 21.9074 14.5935 21.7337C13.57 21.56 12.5465 21.4674 11.5115 21.4674C10.4765 21.4674 9.45303 21.56 8.42953 21.7337C7.40603 21.9074 6.38253 22 5.34753 22Z" fill="#FEFEFE"/>
</g>
<defs>
<clipPath id="clip0_1_386">
<rect width="23" height="22" fill="white"/>
</clipPath>
</defs>
</svg>
