<svg width="230" height="50" viewBox="0 0 230 50" fill="none" xmlns="http://www.w3.org/2000/svg">
<rect x="1" y="1" width="228" height="48" rx="24" stroke="#DDDDDD" stroke-width="2"/>
<g clip-path="url(#clip0_1_354)">
<mask id="mask0_1_354" style="mask-type:luminance" maskUnits="userSpaceOnUse" x="23" y="13" width="25" height="25">
<path d="M48 13H23V38H48V13Z" fill="white"/>
</mask>
<g mask="url(#mask0_1_354)">
<path d="M47.5 25.7875C47.5 24.9 47.425 24.05 47.275 23.225H35.5V28.0625H42.225C41.9375 29.625 41.05 30.95 39.725 31.8375V34.975H43.7625C46.125 32.8 47.4875 29.6 47.4875 25.7875H47.5Z" fill="#4285F4"/>
<path d="M35.5 38C38.875 38 41.7 36.875 43.775 34.975L39.7375 31.8375C38.6125 32.5875 37.1875 33.025 35.5 33.025C32.25 33.025 29.4875 30.825 28.5 27.875H24.325V31.1125C26.3875 35.2 30.6125 38 35.5 38Z" fill="#34A853"/>
<path d="M28.5 27.875C28.25 27.125 28.1125 26.325 28.1125 25.5C28.1125 24.675 28.25 23.875 28.5 23.125V19.8875H24.325C23.475 21.575 23 23.4875 23 25.5C23 27.5125 23.4875 29.425 24.325 31.1125L28.5 27.875Z" fill="#FBBC04"/>
<path d="M35.5 17.975C37.3375 17.975 38.9875 18.6 40.275 19.85L43.8625 16.2625C41.7 14.25 38.8625 13.0125 35.5 13.0125C30.6125 13 26.3875 15.8 24.325 19.8875L28.5 23.125C29.4875 20.175 32.2375 17.975 35.5 17.975Z" fill="#E94235"/>
</g>
</g>
<path d="M66.3516 27.0703C66.3516 26.8359 66.3151 26.6276 66.2422 26.4453C66.1745 26.263 66.0521 26.0964 65.875 25.9453C65.6979 25.7943 65.4479 25.6484 65.125 25.5078C64.8073 25.362 64.401 25.2135 63.9062 25.0625C63.3646 24.8958 62.8646 24.7109 62.4062 24.5078C61.9531 24.2995 61.5573 24.0599 61.2188 23.7891C60.8802 23.513 60.6172 23.1979 60.4297 22.8438C60.2422 22.4844 60.1484 22.0703 60.1484 21.6016C60.1484 21.138 60.2448 20.7161 60.4375 20.3359C60.6354 19.9557 60.9141 19.6276 61.2734 19.3516C61.638 19.0703 62.0677 18.8542 62.5625 18.7031C63.0573 18.5469 63.6042 18.4688 64.2031 18.4688C65.0469 18.4688 65.7734 18.625 66.3828 18.9375C66.9974 19.25 67.4688 19.6693 67.7969 20.1953C68.1302 20.7214 68.2969 21.3021 68.2969 21.9375H66.3516C66.3516 21.5625 66.2708 21.2318 66.1094 20.9453C65.9531 20.6536 65.7135 20.4245 65.3906 20.2578C65.0729 20.0911 64.6693 20.0078 64.1797 20.0078C63.7161 20.0078 63.3307 20.0781 63.0234 20.2188C62.7161 20.3594 62.487 20.5495 62.3359 20.7891C62.1849 21.0286 62.1094 21.2995 62.1094 21.6016C62.1094 21.8151 62.1589 22.0104 62.2578 22.1875C62.3568 22.3594 62.5078 22.5208 62.7109 22.6719C62.9141 22.8177 63.1693 22.9557 63.4766 23.0859C63.7839 23.2161 64.1458 23.3411 64.5625 23.4609C65.1927 23.6484 65.7422 23.8568 66.2109 24.0859C66.6797 24.3099 67.0703 24.5651 67.3828 24.8516C67.6953 25.138 67.9297 25.4635 68.0859 25.8281C68.2422 26.1875 68.3203 26.5964 68.3203 27.0547C68.3203 27.5339 68.224 27.9661 68.0312 28.3516C67.8385 28.7318 67.5625 29.0573 67.2031 29.3281C66.849 29.5938 66.4219 29.7995 65.9219 29.9453C65.4271 30.0859 64.875 30.1562 64.2656 30.1562C63.7188 30.1562 63.1797 30.0833 62.6484 29.9375C62.1224 29.7917 61.6432 29.5703 61.2109 29.2734C60.7786 28.9714 60.4349 28.5964 60.1797 28.1484C59.9245 27.6953 59.7969 27.1667 59.7969 26.5625H61.7578C61.7578 26.9323 61.8203 27.2474 61.9453 27.5078C62.0755 27.7682 62.2552 27.9818 62.4844 28.1484C62.7135 28.3099 62.9792 28.4297 63.2812 28.5078C63.5885 28.5859 63.9167 28.625 64.2656 28.625C64.724 28.625 65.1068 28.5599 65.4141 28.4297C65.7266 28.2995 65.9609 28.1172 66.1172 27.8828C66.2734 27.6484 66.3516 27.3776 66.3516 27.0703ZM71.8828 21.5469V30H69.9922V21.5469H71.8828ZM69.8672 19.3281C69.8672 19.0417 69.9609 18.8047 70.1484 18.6172C70.3411 18.4245 70.6068 18.3281 70.9453 18.3281C71.2786 18.3281 71.5417 18.4245 71.7344 18.6172C71.9271 18.8047 72.0234 19.0417 72.0234 19.3281C72.0234 19.6094 71.9271 19.8438 71.7344 20.0312C71.5417 20.2188 71.2786 20.3125 70.9453 20.3125C70.6068 20.3125 70.3411 20.2188 70.1484 20.0312C69.9609 19.8438 69.8672 19.6094 69.8672 19.3281ZM79.3594 21.5469H81.0703V29.7656C81.0703 30.526 80.9089 31.1719 80.5859 31.7031C80.263 32.2344 79.8125 32.638 79.2344 32.9141C78.6562 33.1953 77.987 33.3359 77.2266 33.3359C76.9036 33.3359 76.5443 33.2891 76.1484 33.1953C75.7578 33.1016 75.3776 32.9505 75.0078 32.7422C74.6432 32.5391 74.3385 32.2708 74.0938 31.9375L74.9766 30.8281C75.2786 31.1875 75.612 31.4505 75.9766 31.6172C76.3411 31.7839 76.724 31.8672 77.125 31.8672C77.5573 31.8672 77.9245 31.7865 78.2266 31.625C78.5339 31.4688 78.7708 31.237 78.9375 30.9297C79.1042 30.6224 79.1875 30.2474 79.1875 29.8047V23.4609L79.3594 21.5469ZM73.6172 25.8672V25.7031C73.6172 25.0625 73.6953 24.4792 73.8516 23.9531C74.0078 23.4219 74.2318 22.9661 74.5234 22.5859C74.8151 22.2005 75.1693 21.9062 75.5859 21.7031C76.0026 21.4948 76.474 21.3906 77 21.3906C77.5469 21.3906 78.013 21.4896 78.3984 21.6875C78.7891 21.8854 79.1146 22.1693 79.375 22.5391C79.6354 22.9036 79.8385 23.3411 79.9844 23.8516C80.1354 24.3568 80.2474 24.9193 80.3203 25.5391V26.0625C80.2526 26.6667 80.138 27.2188 79.9766 27.7188C79.8151 28.2188 79.6016 28.651 79.3359 29.0156C79.0703 29.3802 78.7422 29.6615 78.3516 29.8594C77.9661 30.0573 77.5104 30.1562 76.9844 30.1562C76.4688 30.1562 76.0026 30.0495 75.5859 29.8359C75.1745 29.6224 74.8203 29.3229 74.5234 28.9375C74.2318 28.5521 74.0078 28.099 73.8516 27.5781C73.6953 27.0521 73.6172 26.4818 73.6172 25.8672ZM75.5 25.7031V25.8672C75.5 26.2526 75.5365 26.612 75.6094 26.9453C75.6875 27.2786 75.8047 27.5729 75.9609 27.8281C76.1224 28.0781 76.3255 28.276 76.5703 28.4219C76.8203 28.5625 77.1146 28.6328 77.4531 28.6328C77.8958 28.6328 78.2578 28.5391 78.5391 28.3516C78.8255 28.1641 79.0443 27.9115 79.1953 27.5938C79.3516 27.2708 79.4609 26.9115 79.5234 26.5156V25.1016C79.4922 24.7943 79.4271 24.5078 79.3281 24.2422C79.2344 23.9766 79.1068 23.7448 78.9453 23.5469C78.7839 23.3438 78.5807 23.1875 78.3359 23.0781C78.0911 22.9635 77.8021 22.9062 77.4688 22.9062C77.1302 22.9062 76.8359 22.9792 76.5859 23.125C76.3359 23.2708 76.1302 23.4714 75.9688 23.7266C75.8125 23.9818 75.6953 24.2786 75.6172 24.6172C75.5391 24.9557 75.5 25.3177 75.5 25.7031ZM84.8906 23.3516V30H83.0078V21.5469H84.7812L84.8906 23.3516ZM84.5547 25.4609L83.9453 25.4531C83.9505 24.8542 84.0339 24.3047 84.1953 23.8047C84.362 23.3047 84.5911 22.875 84.8828 22.5156C85.1797 22.1562 85.5339 21.8802 85.9453 21.6875C86.3568 21.4896 86.8151 21.3906 87.3203 21.3906C87.7266 21.3906 88.0938 21.4479 88.4219 21.5625C88.7552 21.6719 89.0391 21.8516 89.2734 22.1016C89.513 22.3516 89.6953 22.6771 89.8203 23.0781C89.9453 23.474 90.0078 23.9609 90.0078 24.5391V30H88.1172V24.5312C88.1172 24.125 88.0573 23.8047 87.9375 23.5703C87.8229 23.3307 87.6536 23.1615 87.4297 23.0625C87.2109 22.9583 86.9375 22.9062 86.6094 22.9062C86.2865 22.9062 85.9974 22.974 85.7422 23.1094C85.487 23.2448 85.2708 23.4297 85.0938 23.6641C84.9219 23.8984 84.7891 24.1693 84.6953 24.4766C84.6016 24.7839 84.5547 25.112 84.5547 25.4609ZM101 28.0078V21.5469H102.891V30H101.109L101 28.0078ZM101.266 26.25L101.898 26.2344C101.898 26.8021 101.836 27.3255 101.711 27.8047C101.586 28.2786 101.393 28.6927 101.133 29.0469C100.872 29.3958 100.539 29.6693 100.133 29.8672C99.7266 30.0599 99.2396 30.1562 98.6719 30.1562C98.2604 30.1562 97.8828 30.0964 97.5391 29.9766C97.1953 29.8568 96.8984 29.6719 96.6484 29.4219C96.4036 29.1719 96.2135 28.8464 96.0781 28.4453C95.9427 28.0443 95.875 27.5651 95.875 27.0078V21.5469H97.7578V27.0234C97.7578 27.3307 97.7943 27.5885 97.8672 27.7969C97.9401 28 98.0391 28.1641 98.1641 28.2891C98.2891 28.4141 98.4349 28.5026 98.6016 28.5547C98.7682 28.6068 98.9453 28.6328 99.1328 28.6328C99.6693 28.6328 100.091 28.5286 100.398 28.3203C100.711 28.1068 100.932 27.8203 101.062 27.4609C101.198 27.1016 101.266 26.6979 101.266 26.25ZM106.711 23.1719V33.25H104.828V21.5469H106.562L106.711 23.1719ZM112.219 25.6953V25.8594C112.219 26.474 112.146 27.0443 112 27.5703C111.859 28.0911 111.648 28.5469 111.367 28.9375C111.091 29.3229 110.75 29.6224 110.344 29.8359C109.938 30.0495 109.469 30.1562 108.938 30.1562C108.411 30.1562 107.951 30.0599 107.555 29.8672C107.164 29.6693 106.833 29.3906 106.562 29.0312C106.292 28.6719 106.073 28.25 105.906 27.7656C105.745 27.276 105.63 26.7396 105.562 26.1562V25.5234C105.63 24.9036 105.745 24.3411 105.906 23.8359C106.073 23.3307 106.292 22.8958 106.562 22.5312C106.833 22.1667 107.164 21.8854 107.555 21.6875C107.945 21.4896 108.401 21.3906 108.922 21.3906C109.453 21.3906 109.924 21.4948 110.336 21.7031C110.747 21.9062 111.094 22.1979 111.375 22.5781C111.656 22.9531 111.867 23.4062 112.008 23.9375C112.148 24.4635 112.219 25.0495 112.219 25.6953ZM110.336 25.8594V25.6953C110.336 25.3047 110.299 24.9427 110.227 24.6094C110.154 24.2708 110.039 23.974 109.883 23.7188C109.727 23.4635 109.526 23.2656 109.281 23.125C109.042 22.9792 108.753 22.9062 108.414 22.9062C108.081 22.9062 107.794 22.9635 107.555 23.0781C107.315 23.1875 107.115 23.3411 106.953 23.5391C106.792 23.737 106.667 23.9688 106.578 24.2344C106.49 24.4948 106.427 24.7786 106.391 25.0859V26.6016C106.453 26.9766 106.56 27.3203 106.711 27.6328C106.862 27.9453 107.076 28.1953 107.352 28.3828C107.633 28.5651 107.992 28.6562 108.43 28.6562C108.768 28.6562 109.057 28.5833 109.297 28.4375C109.536 28.2917 109.732 28.0911 109.883 27.8359C110.039 27.5755 110.154 27.276 110.227 26.9375C110.299 26.599 110.336 26.2396 110.336 25.8594ZM120.102 28.125L122.055 21.5469H123.258L122.93 23.5156L120.961 30H119.883L120.102 28.125ZM118.953 21.5469L120.477 28.1562L120.602 30H119.398L117.109 21.5469H118.953ZM125.086 28.0781L126.562 21.5469H128.398L126.117 30H124.914L125.086 28.0781ZM123.461 21.5469L125.391 28.0469L125.633 30H124.555L122.562 23.5078L122.234 21.5469H123.461ZM131.695 21.5469V30H129.805V21.5469H131.695ZM129.68 19.3281C129.68 19.0417 129.773 18.8047 129.961 18.6172C130.154 18.4245 130.419 18.3281 130.758 18.3281C131.091 18.3281 131.354 18.4245 131.547 18.6172C131.74 18.8047 131.836 19.0417 131.836 19.3281C131.836 19.6094 131.74 19.8438 131.547 20.0312C131.354 20.2188 131.091 20.3125 130.758 20.3125C130.419 20.3125 130.154 20.2188 129.961 20.0312C129.773 19.8438 129.68 19.6094 129.68 19.3281ZM137.633 21.5469V22.9219H132.867V21.5469H137.633ZM134.242 19.4766H136.125V27.6641C136.125 27.9245 136.161 28.125 136.234 28.2656C136.312 28.401 136.419 28.4922 136.555 28.5391C136.69 28.5859 136.849 28.6094 137.031 28.6094C137.161 28.6094 137.286 28.6016 137.406 28.5859C137.526 28.5703 137.622 28.5547 137.695 28.5391L137.703 29.9766C137.547 30.0234 137.365 30.0651 137.156 30.1016C136.953 30.138 136.719 30.1562 136.453 30.1562C136.021 30.1562 135.638 30.0807 135.305 29.9297C134.971 29.7734 134.711 29.5208 134.523 29.1719C134.336 28.8229 134.242 28.3594 134.242 27.7812V19.4766ZM140.945 18V30H139.07V18H140.945ZM140.617 25.4609L140.008 25.4531C140.013 24.8698 140.094 24.3307 140.25 23.8359C140.411 23.3411 140.635 22.9115 140.922 22.5469C141.214 22.1771 141.562 21.8932 141.969 21.6953C142.375 21.4922 142.826 21.3906 143.32 21.3906C143.737 21.3906 144.112 21.4479 144.445 21.5625C144.784 21.6771 145.076 21.862 145.32 22.1172C145.565 22.3672 145.75 22.6953 145.875 23.1016C146.005 23.5026 146.07 23.9922 146.07 24.5703V30H144.18V24.5547C144.18 24.1484 144.12 23.8255 144 23.5859C143.885 23.3464 143.716 23.1745 143.492 23.0703C143.268 22.9609 142.995 22.9062 142.672 22.9062C142.333 22.9062 142.034 22.974 141.773 23.1094C141.518 23.2448 141.305 23.4297 141.133 23.6641C140.961 23.8984 140.831 24.1693 140.742 24.4766C140.659 24.7839 140.617 25.112 140.617 25.4609ZM160.883 24.1875V28.5312C160.721 28.7448 160.469 28.9792 160.125 29.2344C159.786 29.4844 159.336 29.7005 158.773 29.8828C158.211 30.0651 157.51 30.1562 156.672 30.1562C155.958 30.1562 155.305 30.0365 154.711 29.7969C154.117 29.5521 153.604 29.1953 153.172 28.7266C152.745 28.2578 152.414 27.6875 152.18 27.0156C151.945 26.3385 151.828 25.5677 151.828 24.7031V23.9141C151.828 23.0547 151.935 22.2891 152.148 21.6172C152.367 20.9401 152.68 20.3672 153.086 19.8984C153.492 19.4297 153.982 19.0755 154.555 18.8359C155.133 18.5911 155.786 18.4688 156.516 18.4688C157.448 18.4688 158.219 18.625 158.828 18.9375C159.443 19.2448 159.917 19.6719 160.25 20.2188C160.583 20.7656 160.794 21.3906 160.883 22.0938H158.961C158.898 21.6979 158.776 21.3438 158.594 21.0312C158.417 20.7188 158.161 20.474 157.828 20.2969C157.5 20.1146 157.073 20.0234 156.547 20.0234C156.094 20.0234 155.695 20.1094 155.352 20.2812C155.008 20.4531 154.721 20.7057 154.492 21.0391C154.268 21.3724 154.099 21.7786 153.984 22.2578C153.87 22.737 153.812 23.2839 153.812 23.8984V24.7031C153.812 25.3281 153.878 25.8828 154.008 26.3672C154.143 26.8516 154.336 27.2604 154.586 27.5938C154.841 27.9271 155.151 28.1797 155.516 28.3516C155.88 28.5182 156.292 28.6016 156.75 28.6016C157.198 28.6016 157.565 28.5651 157.852 28.4922C158.138 28.4141 158.365 28.3229 158.531 28.2188C158.703 28.1094 158.836 28.0052 158.93 27.9062V25.6484H156.562V24.1875H160.883ZM162.508 25.8672V25.6875C162.508 25.0781 162.596 24.513 162.773 23.9922C162.951 23.4661 163.206 23.0104 163.539 22.625C163.878 22.2344 164.289 21.9323 164.773 21.7188C165.263 21.5 165.815 21.3906 166.43 21.3906C167.049 21.3906 167.602 21.5 168.086 21.7188C168.576 21.9323 168.99 22.2344 169.328 22.625C169.667 23.0104 169.924 23.4661 170.102 23.9922C170.279 24.513 170.367 25.0781 170.367 25.6875V25.8672C170.367 26.4766 170.279 27.0417 170.102 27.5625C169.924 28.0833 169.667 28.5391 169.328 28.9297C168.99 29.3151 168.578 29.6172 168.094 29.8359C167.609 30.0495 167.06 30.1562 166.445 30.1562C165.826 30.1562 165.271 30.0495 164.781 29.8359C164.297 29.6172 163.885 29.3151 163.547 28.9297C163.208 28.5391 162.951 28.0833 162.773 27.5625C162.596 27.0417 162.508 26.4766 162.508 25.8672ZM164.391 25.6875V25.8672C164.391 26.2474 164.43 26.6068 164.508 26.9453C164.586 27.2839 164.708 27.5807 164.875 27.8359C165.042 28.0911 165.255 28.2917 165.516 28.4375C165.776 28.5833 166.086 28.6562 166.445 28.6562C166.794 28.6562 167.096 28.5833 167.352 28.4375C167.612 28.2917 167.826 28.0911 167.992 27.8359C168.159 27.5807 168.281 27.2839 168.359 26.9453C168.443 26.6068 168.484 26.2474 168.484 25.8672V25.6875C168.484 25.3125 168.443 24.9583 168.359 24.625C168.281 24.2865 168.156 23.987 167.984 23.7266C167.818 23.4661 167.604 23.263 167.344 23.1172C167.089 22.9661 166.784 22.8906 166.43 22.8906C166.076 22.8906 165.768 22.9661 165.508 23.1172C165.253 23.263 165.042 23.4661 164.875 23.7266C164.708 23.987 164.586 24.2865 164.508 24.625C164.43 24.9583 164.391 25.3125 164.391 25.6875ZM171.586 25.8672V25.6875C171.586 25.0781 171.674 24.513 171.852 23.9922C172.029 23.4661 172.284 23.0104 172.617 22.625C172.956 22.2344 173.367 21.9323 173.852 21.7188C174.341 21.5 174.893 21.3906 175.508 21.3906C176.128 21.3906 176.68 21.5 177.164 21.7188C177.654 21.9323 178.068 22.2344 178.406 22.625C178.745 23.0104 179.003 23.4661 179.18 23.9922C179.357 24.513 179.445 25.0781 179.445 25.6875V25.8672C179.445 26.4766 179.357 27.0417 179.18 27.5625C179.003 28.0833 178.745 28.5391 178.406 28.9297C178.068 29.3151 177.656 29.6172 177.172 29.8359C176.688 30.0495 176.138 30.1562 175.523 30.1562C174.904 30.1562 174.349 30.0495 173.859 29.8359C173.375 29.6172 172.964 29.3151 172.625 28.9297C172.286 28.5391 172.029 28.0833 171.852 27.5625C171.674 27.0417 171.586 26.4766 171.586 25.8672ZM173.469 25.6875V25.8672C173.469 26.2474 173.508 26.6068 173.586 26.9453C173.664 27.2839 173.786 27.5807 173.953 27.8359C174.12 28.0911 174.333 28.2917 174.594 28.4375C174.854 28.5833 175.164 28.6562 175.523 28.6562C175.872 28.6562 176.174 28.5833 176.43 28.4375C176.69 28.2917 176.904 28.0911 177.07 27.8359C177.237 27.5807 177.359 27.2839 177.438 26.9453C177.521 26.6068 177.562 26.2474 177.562 25.8672V25.6875C177.562 25.3125 177.521 24.9583 177.438 24.625C177.359 24.2865 177.234 23.987 177.062 23.7266C176.896 23.4661 176.682 23.263 176.422 23.1172C176.167 22.9661 175.862 22.8906 175.508 22.8906C175.154 22.8906 174.846 22.9661 174.586 23.1172C174.331 23.263 174.12 23.4661 173.953 23.7266C173.786 23.987 173.664 24.2865 173.586 24.625C173.508 24.9583 173.469 25.3125 173.469 25.6875ZM186.438 21.5469H188.148V29.7656C188.148 30.526 187.987 31.1719 187.664 31.7031C187.341 32.2344 186.891 32.638 186.312 32.9141C185.734 33.1953 185.065 33.3359 184.305 33.3359C183.982 33.3359 183.622 33.2891 183.227 33.1953C182.836 33.1016 182.456 32.9505 182.086 32.7422C181.721 32.5391 181.417 32.2708 181.172 31.9375L182.055 30.8281C182.357 31.1875 182.69 31.4505 183.055 31.6172C183.419 31.7839 183.802 31.8672 184.203 31.8672C184.635 31.8672 185.003 31.7865 185.305 31.625C185.612 31.4688 185.849 31.237 186.016 30.9297C186.182 30.6224 186.266 30.2474 186.266 29.8047V23.4609L186.438 21.5469ZM180.695 25.8672V25.7031C180.695 25.0625 180.773 24.4792 180.93 23.9531C181.086 23.4219 181.31 22.9661 181.602 22.5859C181.893 22.2005 182.247 21.9062 182.664 21.7031C183.081 21.4948 183.552 21.3906 184.078 21.3906C184.625 21.3906 185.091 21.4896 185.477 21.6875C185.867 21.8854 186.193 22.1693 186.453 22.5391C186.714 22.9036 186.917 23.3411 187.062 23.8516C187.214 24.3568 187.326 24.9193 187.398 25.5391V26.0625C187.331 26.6667 187.216 27.2188 187.055 27.7188C186.893 28.2188 186.68 28.651 186.414 29.0156C186.148 29.3802 185.82 29.6615 185.43 29.8594C185.044 30.0573 184.589 30.1562 184.062 30.1562C183.547 30.1562 183.081 30.0495 182.664 29.8359C182.253 29.6224 181.898 29.3229 181.602 28.9375C181.31 28.5521 181.086 28.099 180.93 27.5781C180.773 27.0521 180.695 26.4818 180.695 25.8672ZM182.578 25.7031V25.8672C182.578 26.2526 182.615 26.612 182.688 26.9453C182.766 27.2786 182.883 27.5729 183.039 27.8281C183.201 28.0781 183.404 28.276 183.648 28.4219C183.898 28.5625 184.193 28.6328 184.531 28.6328C184.974 28.6328 185.336 28.5391 185.617 28.3516C185.904 28.1641 186.122 27.9115 186.273 27.5938C186.43 27.2708 186.539 26.9115 186.602 26.5156V25.1016C186.57 24.7943 186.505 24.5078 186.406 24.2422C186.312 23.9766 186.185 23.7448 186.023 23.5469C185.862 23.3438 185.659 23.1875 185.414 23.0781C185.169 22.9635 184.88 22.9062 184.547 22.9062C184.208 22.9062 183.914 22.9792 183.664 23.125C183.414 23.2708 183.208 23.4714 183.047 23.7266C182.891 23.9818 182.773 24.2786 182.695 24.6172C182.617 24.9557 182.578 25.3177 182.578 25.7031ZM192.117 18V30H190.227V18H192.117ZM197.906 30.1562C197.281 30.1562 196.716 30.0547 196.211 29.8516C195.711 29.6432 195.284 29.3542 194.93 28.9844C194.581 28.6146 194.312 28.1797 194.125 27.6797C193.938 27.1797 193.844 26.6406 193.844 26.0625V25.75C193.844 25.0885 193.94 24.4896 194.133 23.9531C194.326 23.4167 194.594 22.9583 194.938 22.5781C195.281 22.1927 195.688 21.8984 196.156 21.6953C196.625 21.4922 197.133 21.3906 197.68 21.3906C198.284 21.3906 198.812 21.4922 199.266 21.6953C199.719 21.8984 200.094 22.1849 200.391 22.5547C200.693 22.9193 200.917 23.3542 201.062 23.8594C201.214 24.3646 201.289 24.9219 201.289 25.5312V26.3359H194.758V24.9844H199.43V24.8359C199.419 24.4974 199.352 24.1797 199.227 23.8828C199.107 23.5859 198.922 23.3464 198.672 23.1641C198.422 22.9818 198.089 22.8906 197.672 22.8906C197.359 22.8906 197.081 22.9583 196.836 23.0938C196.596 23.224 196.396 23.4141 196.234 23.6641C196.073 23.9141 195.948 24.2161 195.859 24.5703C195.776 24.9193 195.734 25.3125 195.734 25.75V26.0625C195.734 26.4323 195.784 26.776 195.883 27.0938C195.987 27.4062 196.138 27.6797 196.336 27.9141C196.534 28.1484 196.773 28.3333 197.055 28.4688C197.336 28.599 197.656 28.6641 198.016 28.6641C198.469 28.6641 198.872 28.5729 199.227 28.3906C199.581 28.2083 199.888 27.9505 200.148 27.6172L201.141 28.5781C200.958 28.8438 200.721 29.099 200.43 29.3438C200.138 29.5833 199.781 29.7786 199.359 29.9297C198.943 30.0807 198.458 30.1562 197.906 30.1562Z" fill="black"/>
<defs>
<clipPath id="clip0_1_354">
<rect width="25" height="25" fill="white" transform="translate(23 13)"/>
</clipPath>
</defs>
</svg>
