<svg width="25" height="25" viewBox="0 0 25 25" fill="none" xmlns="http://www.w3.org/2000/svg">
<g id="_&#235;&#160;&#136;&#236;&#157;&#180;&#236;&#150;&#180;_1" clip-path="url(#clip0_1_377)">
<path id="Vector" d="M4.81249 18.875C5.87499 18.0625 7.06249 17.425 8.37499 16.95C9.68749 16.475 11.0625 16.25 12.5 16.25C13.9375 16.25 15.3125 16.4875 16.625 16.95C17.9375 17.4125 19.125 18.0625 20.1875 18.875C20.9125 18.025 21.4875 17.05 21.8875 15.9625C22.2875 14.875 22.5 13.725 22.5 12.4875C22.5 9.71248 21.525 7.36248 19.575 5.41248C17.625 3.46248 15.2625 2.48748 12.5 2.48748C9.73749 2.48748 7.37499 3.46248 5.42499 5.41248C3.47499 7.36248 2.49999 9.72498 2.49999 12.4875C2.49999 13.7125 2.69999 14.875 3.11249 15.9625C3.52499 17.05 4.08749 18.0125 4.81249 18.875ZM12.5 13.75C11.275 13.75 10.2375 13.325 9.38749 12.4875C8.53749 11.65 8.12499 10.6125 8.12499 9.37498C8.12499 8.13748 8.54999 7.11248 9.38749 6.26248C10.225 5.41248 11.2625 4.99998 12.5 4.99998C13.7375 4.99998 14.7625 5.42498 15.6125 6.26248C16.4625 7.09998 16.875 8.13748 16.875 9.37498C16.875 10.6125 16.45 11.6375 15.6125 12.4875C14.775 13.3375 13.7375 13.75 12.5 13.75ZM12.5 25C10.775 25 9.14999 24.675 7.62499 24.0125C6.09999 23.35 4.77499 22.4625 3.64999 21.3375C2.52499 20.2125 1.63749 18.8875 0.974988 17.3625C0.312488 15.8375 -0.0125122 14.2125 -0.0125122 12.4875C-0.0125122 10.7625 0.312488 9.13748 0.974988 7.61248C1.63749 6.08748 2.52499 4.76248 3.64999 3.63748C4.77499 2.51248 6.09999 1.62498 7.62499 0.962476C9.14999 0.299976 10.775 -0.0250244 12.5 -0.0250244C14.225 -0.0250244 15.85 0.299976 17.375 0.962476C18.9 1.62498 20.225 2.51248 21.35 3.63748C22.475 4.76248 23.3625 6.08748 24.025 7.61248C24.6875 9.13748 25.0125 10.7625 25.0125 12.4875C25.0125 14.2125 24.6875 15.8375 24.025 17.3625C23.3625 18.8875 22.475 20.2125 21.35 21.3375C20.225 22.4625 18.9 23.35 17.375 24.0125C15.85 24.675 14.225 25 12.5 25ZM12.5 22.5C13.6 22.5 14.65 22.3375 15.625 22.0125C16.6 21.6875 17.5 21.225 18.3125 20.625C17.5 20.025 16.6 19.5625 15.625 19.2375C14.65 18.9125 13.6 18.75 12.5 18.75C11.4 18.75 10.35 18.9125 9.37499 19.2375C8.39999 19.5625 7.49999 20.025 6.68749 20.625C7.49999 21.225 8.39999 21.6875 9.37499 22.0125C10.35 22.3375 11.4 22.5 12.5 22.5ZM12.5 11.25C13.0375 11.25 13.4875 11.075 13.85 10.7125C14.2 10.3625 14.3875 9.91248 14.3875 9.36248C14.3875 8.81248 14.2125 8.37498 13.85 8.01248C13.5 7.66248 13.05 7.47498 12.5 7.47498C11.95 7.47498 11.5125 7.64998 11.15 8.01248C10.7875 8.37498 10.6125 8.81248 10.6125 9.36248C10.6125 9.91248 10.7875 10.35 11.15 10.7125C11.5125 11.075 11.95 11.25 12.5 11.25Z" fill="#25C35C"/>
</g>
<defs>
<clipPath id="clip0_1_377">
<rect width="25" height="25" fill="white"/>
</clipPath>
</defs>
</svg>
